<svg xmlns="http://www.w3.org/2000/svg">
  <symbol id="floppy" fill="currentColor">
    <rect x="36" y="3" width="3" height="3" transform="rotate(90 36 3)" />
    <path fill-rule="evenodd" clip-rule="evenodd" d="M24 3V6V9V12H21V9V6V3L24 3Z" />
    <path fill-rule="evenodd" clip-rule="evenodd"
      d="M9 6V3L6 3V6V9V12V15H9H12H15H18H21H24H27H30V12V9V6V3L27 3V6V9V12H24H21H18H15H12H9V9V6Z" />
    <path fill-rule="evenodd" clip-rule="evenodd"
      d="M6 21V24V27V30V33V36H9V33V30V27V24H12H15H18H21H24H27H30V27V30V33V36H33V33V30V27V24V21H30H27H24H21H18H15H12H9H6Z" />
    <path fill-rule="evenodd" clip-rule="evenodd" d="M0 0H3H6H9H12H15H18H21H24H27H30H33V3L30 3H27H24H21H18H15H12H9H6L3
      3V6V9V12V15V18V21V24V27V30V33V36H6H9H12H15H18H21H24H27H30H33H36V33V30V27V24V21V18V15V12V9V6L39
      6V9V12V15V18V21V24V27V30V33V36V39H36H33H30H27H24H21H18H15H12H9H6H3H0V36V33V30V27V24V21V18V15V12V9V6V3V0Z" />
  </symbol>
</svg>
